<svg width="32" height="32" viewBox="0 0 32 32" fill="none" xmlns="http://www.w3.org/2000/svg">
<rect width="32" height="32" rx="8" fill="url(#paint0_linear_1500_3055)"/>
<path d="M8.1775 7.44L8.2255 7.32C8.2735 7.224 8.3455 7.176 8.4415 7.176H21.9295C22.0895 7.176 22.2415 7.144 22.3855 7.08C22.4975 7.048 22.6015 6.992 22.6975 6.912C22.7935 6.816 22.8495 6.68 22.8655 6.504C22.8655 6.456 22.8975 6.416 22.9615 6.384C22.9935 6.368 23.0175 6.368 23.0335 6.384C23.0655 6.4 23.0815 6.424 23.0815 6.456C23.1295 6.728 23.0895 7.008 22.9615 7.296C22.8335 7.568 22.5855 7.736 22.2175 7.8C22.3935 8.248 22.4655 8.624 22.4335 8.928C22.4015 9.216 22.2975 9.464 22.1215 9.672C21.9615 9.88 21.7535 10.056 21.4975 10.2C21.2575 10.328 21.0175 10.472 20.7775 10.632C20.5535 10.792 20.3455 10.976 20.1535 11.184C19.9775 11.376 19.8735 11.624 19.8415 11.928C19.8415 12.056 19.7935 12.12 19.6975 12.12C19.5855 12.152 19.5295 12.112 19.5295 12C19.4815 11.04 19.3855 10.28 19.2415 9.72C19.0975 9.144 18.8895 8.712 18.6175 8.424C18.3455 8.12 18.0095 7.92 17.6095 7.824C17.2095 7.728 16.7295 7.68 16.1695 7.68C15.7855 7.696 15.4415 7.784 15.1375 7.944C14.8655 8.072 14.6175 8.272 14.3935 8.544C14.1855 8.816 14.0815 9.208 14.0815 9.72V15H16.1215C16.6015 15 17.0015 14.864 17.3215 14.592C17.6575 14.32 17.8255 13.912 17.8255 13.368C17.8255 13.192 17.8015 13.04 17.7535 12.912C17.7055 12.784 17.6495 12.664 17.5855 12.552C17.4415 12.28 17.4575 12.144 17.6335 12.144C17.6975 12.144 17.7535 12.152 17.8015 12.168C17.9615 12.216 18.1375 12.28 18.3295 12.36C18.5215 12.44 18.6975 12.544 18.8575 12.672C19.0175 12.8 19.1535 12.968 19.2655 13.176C19.3775 13.368 19.4335 13.608 19.4335 13.896C19.4335 14.312 19.3295 14.616 19.1215 14.808C18.9295 15 18.7695 15.128 18.6415 15.192C18.7695 15.272 18.9295 15.408 19.1215 15.6C19.3295 15.792 19.4335 16.056 19.4335 16.392C19.4335 16.872 19.3215 17.248 19.0975 17.52C18.8735 17.776 18.6175 17.968 18.3295 18.096C18.0575 18.208 17.8015 18.28 17.5615 18.312C17.3375 18.328 17.2095 18.336 17.1775 18.336C17.1935 18.336 17.2335 18.312 17.2975 18.264C17.3775 18.216 17.4495 18.144 17.5135 18.048C17.5935 17.936 17.6655 17.8 17.7295 17.64C17.7935 17.48 17.8255 17.296 17.8255 17.088C17.8255 16.576 17.6655 16.176 17.3455 15.888C17.0255 15.6 16.6335 15.456 16.1695 15.456H14.0815V21.456C14.0975 21.84 14.1855 22.176 14.3455 22.464C14.4735 22.736 14.6815 22.976 14.9695 23.184C15.2575 23.392 15.6575 23.496 16.1695 23.496C17.0175 23.496 17.7215 23.416 18.2815 23.256C18.8575 23.08 19.3135 22.8 19.6495 22.416C20.0015 22.016 20.2575 21.496 20.4175 20.856C20.5775 20.216 20.6815 19.416 20.7295 18.456C20.7295 18.36 20.7855 18.312 20.8975 18.312C20.9935 18.344 21.0415 18.416 21.0415 18.528C21.0575 18.784 21.1695 19.024 21.3775 19.248C21.5855 19.472 21.8255 19.696 22.0975 19.92C22.3695 20.128 22.6415 20.352 22.9135 20.592C23.2015 20.816 23.4335 21.064 23.6095 21.336C23.7855 21.608 23.8655 21.912 23.8495 22.248C23.8495 22.584 23.7055 22.96 23.4175 23.376C23.7855 23.44 24.0495 23.616 24.2095 23.904C24.3855 24.192 24.4095 24.464 24.2815 24.72C24.2495 24.784 24.2095 24.808 24.1615 24.792C24.0975 24.76 24.0655 24.72 24.0655 24.672C24.0495 24.544 24.0015 24.432 23.9215 24.336C23.8575 24.256 23.7615 24.176 23.6335 24.096C23.5215 24.032 23.3535 24 23.1295 24H8.4415C8.3455 24 8.2735 23.952 8.2255 23.856L8.1775 23.736C8.1295 23.624 8.1775 23.568 8.3215 23.568H8.4895C8.6335 23.552 8.7695 23.512 8.8975 23.448C8.9935 23.384 9.0815 23.288 9.1615 23.16C9.2415 23.032 9.2815 22.848 9.2815 22.608V8.568C9.2815 8.392 9.2495 8.232 9.1855 8.088C9.1375 7.96 9.0575 7.848 8.9455 7.752C8.8495 7.656 8.6975 7.608 8.4895 7.608H8.3215C8.1775 7.608 8.1295 7.552 8.1775 7.44Z" fill="white"/>
<defs>
<linearGradient id="paint0_linear_1500_3055" x1="31" y1="32" x2="-0.933473" y2="2.06237" gradientUnits="userSpaceOnUse">
<stop offset="0.25" stop-color="#A78BFA"/>
<stop offset="1" stop-color="#0EA5E9"/>
</linearGradient>
</defs>
</svg>
