<svg xmlns="http://www.w3.org/2000/svg" viewBox="153.6 185.8 99.31 106.4">
  <path
    d="M153.719,187.468L154.022,186.709C154.326,186.102 154.781,185.799 155.388,185.799L239.692,185.799C240.704,185.799 241.479,187.111 242.514,189.745C243.627,192.578 244.082,194.931 243.88,196.803C243.677,198.675 243.045,200.269 241.982,201.584C240.92,202.9 239.604,203.988 238.036,204.848C236.467,205.708 234.95,206.644 233.482,207.656C232.015,208.668 230.7,209.806 229.536,211.071C228.372,212.336 227.689,213.93 227.487,215.852C227.487,216.662 227.183,217.067 226.576,217.067C225.868,217.269 225.514,217.016 225.514,216.308C225.21,210.236 224.603,205.404 223.692,201.812C222.781,198.22 221.466,195.488 219.746,193.616C218.025,191.744 215.9,190.504 213.371,189.897C210.841,189.29 207.805,188.986 204.263,188.986C201.835,189.087 199.659,189.644 197.737,190.656C196.016,191.465 194.473,192.73 193.107,194.45C191.741,196.171 191.058,198.65 191.058,201.888L191.058,235.281L203.96,235.281C206.996,235.281 209.551,234.421 211.625,232.701C213.7,230.98 214.737,228.4 214.737,224.959C214.737,223.846 214.585,222.885 214.281,222.075C213.978,221.266 213.624,220.507 213.219,219.799C212.308,218.078 212.409,217.218 213.522,217.218C213.927,217.218 214.281,217.269 214.585,217.37C215.597,217.674 216.71,218.078 217.924,218.584C219.139,219.09 220.252,219.748 221.264,220.558C222.275,221.367 223.136,222.404 223.844,223.669C224.552,224.934 224.906,226.477 224.906,228.299L224.906,244.084C224.906,247.12 224.198,249.473 222.781,251.143C221.365,252.812 219.771,254.027 218,254.785C216.229,255.544 214.61,256 213.143,256.152C211.676,256.303 210.841,256.379 210.639,256.379C210.74,256.379 211.018,256.227 211.473,255.924C211.929,255.62 212.384,255.14 212.839,254.482C213.295,253.824 213.725,252.989 214.13,251.977C214.534,250.965 214.737,249.802 214.737,248.486C214.737,245.248 213.725,242.718 211.701,240.897C209.677,239.076 207.198,238.165 204.263,238.165L191.058,238.165L191.058,276.111C191.159,278.54 191.716,280.665 192.728,282.486C193.537,284.207 194.853,285.725 196.674,287.04C198.496,288.356 201.025,289.013 204.263,289.013C209.627,289.013 214.104,288.482 217.697,287.419C221.289,286.357 224.173,284.586 226.348,282.107C228.524,279.628 230.118,276.364 231.13,272.317C232.142,268.269 232.799,263.21 233.103,257.138C233.103,256.531 233.457,256.227 234.165,256.227C234.773,256.43 235.076,256.885 235.076,257.593C235.177,259.213 235.886,260.73 237.201,262.147C238.517,263.564 240.034,264.955 241.755,266.321C243.475,267.687 245.221,269.104 246.991,270.571C248.762,272.038 250.204,273.632 251.317,275.352C252.43,277.073 252.962,278.995 252.911,281.12C252.86,283.245 251.924,285.623 250.103,288.254C248.971,289.89 248.644,290.353 247.282,292.201L155.388,292.201C154.781,292.201 154.326,291.897 154.022,291.29L153.719,290.531C153.415,289.823 153.719,289.469 154.629,289.469L155.692,289.469C156.603,289.367 157.463,289.114 158.272,288.71C158.879,288.305 159.436,287.698 159.942,286.888C160.448,286.079 160.701,284.915 160.701,283.397L160.701,194.602C160.701,193.489 160.498,192.477 160.094,191.566C159.79,190.757 159.309,190.049 158.652,189.441C157.994,188.834 157.007,188.531 155.692,188.531L154.629,188.531C153.719,188.531 153.415,188.177 153.719,187.468Z"
    fill-rule="nonzero"
  />
</svg>
